# xmcd
#
# Track frame offsets:
#	150
#	33371
#	70653
#	95420
#	120595
#	138124
#	169340
#	202176
#	246929
#	275217
#	303997
#
# Disc length: 4295 seconds
#
# Revision: 1
# Processed by: cddbd v1.5.1PL0 Copyright (c) Steve Scherf et al.
# Submitted via: EasyCDDAExtractor 7.0.3.1
#
DISCID=9f10c50b
DTITLE=Various Artist - Techno 34
DYEAR=2005
DGENRE=House
TTITLE0=MISSY ELIOTT FT CIARA and FAT - LOSE CONTROL(STONEBRIDGE CLUB MIX)
TTITLE1=CIARA FT LUDACRIS - OH(BOMBO JONES REMIX)
TTITLE2=CRAZY FROG  - POPCORN(POTATOHEADZ MIX)
TTITLE3=LES PROJECT - YOU'RE NOT ALONE(HARD BASS EXTENTED MIX)
TTITLE4=ARASH   - BORO BORO(GOGO REMIX)
TTITLE5=CARL COX FT HANNAH ROBINS - GIVE ME YOUR LOVE(EXTENTED MIX)
TTITLE6=CRAIG DAVID   - ALL THE WAY(SANDY RIVERA BLACKWIZ MIX)
TTITLE7=AFRICANISM BY BJOEM LUND - IMBALAYE(CLUB MIX)
TTITLE8=BON GARCON   - FREEK U(KURTIS MANTRONIK CLUB MIX)
TTITLE9=INFERNAL  - KEEN ON DISCO(INF:CLUB MIX)
TTITLE10=MINERVE   - FALING(LIGHTHOUSE MIX)
EXTD=
EXTT0=
EXTT1=
EXTT2=
EXTT3=
EXTT4=
EXTT5=
EXTT6=
EXTT7=
EXTT8=
EXTT9=
EXTT10=
PLAYORDER=
